<?xml version="1.0" encoding="UTF-8" standalone="no"?>
<!DOCTYPE svg PUBLIC "-//W3C//DTD SVG 1.1//EN"
 "http://www.w3.org/Graphics/SVG/1.1/DTD/svg11.dtd">
<!-- Generated by graphviz version 2.43.0 (0)
 -->
<!-- Title: /home/runner/work/acados_solver_ros2/acados_solver_ros2/acados_solver_base/include/acados_solver_base/acados_solver_exceptions.hpp Pages: 1 -->
<svg width="229pt" height="128pt"
 viewBox="0.00 0.00 228.50 128.00" xmlns="http://www.w3.org/2000/svg" xmlns:xlink="http://www.w3.org/1999/xlink">
<g id="graph0" class="graph" transform="scale(1 1) rotate(0) translate(4 124)">
<title>/home/runner/work/acados_solver_ros2/acados_solver_ros2/acados_solver_base/include/acados_solver_base/acados_solver_exceptions.hpp</title>
<!-- Node1 -->
<g id="node1" class="node">
<title>Node1</title>
<g id="a_node1"><a xlink:title=" ">
<polygon fill="#bfbfbf" stroke="black" points="13.5,-56.5 13.5,-119.5 204.5,-119.5 204.5,-56.5 13.5,-56.5"/>
<text text-anchor="start" x="21.5" y="-107.5" font-family="Helvetica,sans-Serif" font-size="10.00">/home/runner/work/acados</text>
<text text-anchor="start" x="21.5" y="-96.5" font-family="Helvetica,sans-Serif" font-size="10.00">_solver_ros2/acados_solver</text>
<text text-anchor="start" x="21.5" y="-85.5" font-family="Helvetica,sans-Serif" font-size="10.00">_ros2/acados_solver_base/include</text>
<text text-anchor="start" x="21.5" y="-74.5" font-family="Helvetica,sans-Serif" font-size="10.00">/acados_solver_base/acados_solver</text>
<text text-anchor="middle" x="109" y="-63.5" font-family="Helvetica,sans-Serif" font-size="10.00">_exceptions.hpp</text>
</a>
</g>
</g>
<!-- Node2 -->
<g id="node2" class="node">
<title>Node2</title>
<g id="a_node2"><a xlink:title=" ">
<polygon fill="none" stroke="#bfbfbf" points="0,-0.5 0,-19.5 44,-19.5 44,-0.5 0,-0.5"/>
<text text-anchor="middle" x="22" y="-7.5" font-family="Helvetica,sans-Serif" font-size="10.00">string</text>
</a>
</g>
</g>
<!-- Node1&#45;&gt;Node2 -->
<g id="edge1" class="edge">
<title>Node1&#45;&gt;Node2</title>
<path fill="none" stroke="midnightblue" d="M73.86,-56.31C62.07,-46.01 49.43,-34.96 39.58,-26.36"/>
<polygon fill="midnightblue" stroke="midnightblue" points="41.88,-23.72 32.04,-19.77 37.27,-28.99 41.88,-23.72"/>
</g>
<!-- Node3 -->
<g id="node3" class="node">
<title>Node3</title>
<g id="a_node3"><a xlink:title=" ">
<polygon fill="none" stroke="#bfbfbf" points="62.5,-0.5 62.5,-19.5 155.5,-19.5 155.5,-0.5 62.5,-0.5"/>
<text text-anchor="middle" x="109" y="-7.5" font-family="Helvetica,sans-Serif" font-size="10.00">unordered_map</text>
</a>
</g>
</g>
<!-- Node1&#45;&gt;Node3 -->
<g id="edge2" class="edge">
<title>Node1&#45;&gt;Node3</title>
<path fill="none" stroke="midnightblue" d="M109,-56.09C109,-47.15 109,-37.67 109,-29.72"/>
<polygon fill="midnightblue" stroke="midnightblue" points="112.5,-29.72 109,-19.72 105.5,-29.72 112.5,-29.72"/>
</g>
<!-- Node4 -->
<g id="node4" class="node">
<title>Node4</title>
<g id="a_node4"><a xlink:title=" ">
<polygon fill="none" stroke="#bfbfbf" points="173.5,-0.5 173.5,-19.5 220.5,-19.5 220.5,-0.5 173.5,-0.5"/>
<text text-anchor="middle" x="197" y="-7.5" font-family="Helvetica,sans-Serif" font-size="10.00">vector</text>
</a>
</g>
</g>
<!-- Node1&#45;&gt;Node4 -->
<g id="edge3" class="edge">
<title>Node1&#45;&gt;Node4</title>
<path fill="none" stroke="midnightblue" d="M144.54,-56.31C156.46,-46.01 169.25,-34.96 179.22,-26.36"/>
<polygon fill="midnightblue" stroke="midnightblue" points="181.56,-28.96 186.84,-19.77 176.98,-23.66 181.56,-28.96"/>
</g>
</g>
</svg>
