<?xml version="1.0" encoding="UTF-8" standalone="no"?>
<!DOCTYPE svg PUBLIC "-//W3C//DTD SVG 1.1//EN"
 "http://www.w3.org/Graphics/SVG/1.1/DTD/svg11.dtd">
<!-- Generated by graphviz version 2.43.0 (0)
 -->
<!-- Title: /home/runner/work/acados_solver_ros2/acados_solver_ros2/acados_solver_base/include/acados_solver_base/acados_solver.hpp Pages: 1 -->
<svg width="717pt" height="184pt"
 viewBox="0.00 0.00 716.50 184.00" xmlns="http://www.w3.org/2000/svg" xmlns:xlink="http://www.w3.org/1999/xlink">
<g id="graph0" class="graph" transform="scale(1 1) rotate(0) translate(4 180)">
<title>/home/runner/work/acados_solver_ros2/acados_solver_ros2/acados_solver_base/include/acados_solver_base/acados_solver.hpp</title>
<!-- Node1 -->
<g id="node1" class="node">
<title>Node1</title>
<g id="a_node1"><a xlink:title=" ">
<polygon fill="#bfbfbf" stroke="black" points="178,-123.5 178,-175.5 389,-175.5 389,-123.5 178,-123.5"/>
<text text-anchor="start" x="186" y="-163.5" font-family="Helvetica,sans-Serif" font-size="10.00">/home/runner/work/acados</text>
<text text-anchor="start" x="186" y="-152.5" font-family="Helvetica,sans-Serif" font-size="10.00">_solver_ros2/acados_solver</text>
<text text-anchor="start" x="186" y="-141.5" font-family="Helvetica,sans-Serif" font-size="10.00">_ros2/acados_solver_base/include</text>
<text text-anchor="middle" x="283.5" y="-130.5" font-family="Helvetica,sans-Serif" font-size="10.00">/acados_solver_base/acados_solver.hpp</text>
</a>
</g>
</g>
<!-- Node2 -->
<g id="node2" class="node">
<title>Node2</title>
<g id="a_node2"><a xlink:title=" ">
<polygon fill="none" stroke="#bfbfbf" points="0,-0.5 0,-19.5 77,-19.5 77,-0.5 0,-0.5"/>
<text text-anchor="middle" x="38.5" y="-7.5" font-family="Helvetica,sans-Serif" font-size="10.00">Eigen/Dense</text>
</a>
</g>
</g>
<!-- Node1&#45;&gt;Node2 -->
<g id="edge1" class="edge">
<title>Node1&#45;&gt;Node2</title>
<path fill="none" stroke="midnightblue" d="M177.85,-124.58C150.84,-115.5 122.85,-103.27 99.5,-87 77.34,-71.56 59.09,-45.81 48.5,-28.63"/>
<polygon fill="midnightblue" stroke="midnightblue" points="51.28,-26.46 43.17,-19.64 45.26,-30.03 51.28,-26.46"/>
</g>
<!-- Node3 -->
<g id="node3" class="node">
<title>Node3</title>
<g id="a_node3"><a xlink:title=" ">
<polygon fill="none" stroke="#bfbfbf" points="253.5,-62 253.5,-81 313.5,-81 313.5,-62 253.5,-62"/>
<text text-anchor="middle" x="283.5" y="-69" font-family="Helvetica,sans-Serif" font-size="10.00">iostream</text>
</a>
</g>
</g>
<!-- Node1&#45;&gt;Node3 -->
<g id="edge2" class="edge">
<title>Node1&#45;&gt;Node3</title>
<path fill="none" stroke="midnightblue" d="M283.5,-123.19C283.5,-112.76 283.5,-100.9 283.5,-91.27"/>
<polygon fill="midnightblue" stroke="midnightblue" points="287,-91.21 283.5,-81.21 280,-91.21 287,-91.21"/>
</g>
<!-- Node4 -->
<g id="node4" class="node">
<title>Node4</title>
<g id="a_node4"><a xlink:title=" ">
<polygon fill="none" stroke="#bfbfbf" points="95,-0.5 95,-19.5 142,-19.5 142,-0.5 95,-0.5"/>
<text text-anchor="middle" x="118.5" y="-7.5" font-family="Helvetica,sans-Serif" font-size="10.00">vector</text>
</a>
</g>
</g>
<!-- Node1&#45;&gt;Node4 -->
<g id="edge3" class="edge">
<title>Node1&#45;&gt;Node4</title>
<path fill="none" stroke="midnightblue" d="M177.77,-133.1C151.59,-124.02 126.49,-109.66 110.5,-87 98.7,-70.28 104.02,-46.13 110.12,-29.56"/>
<polygon fill="midnightblue" stroke="midnightblue" points="113.51,-30.51 114.06,-19.92 107.03,-27.85 113.51,-30.51"/>
</g>
<!-- Node5 -->
<g id="node5" class="node">
<title>Node5</title>
<g id="a_node5"><a xlink:title=" ">
<polygon fill="none" stroke="#bfbfbf" points="332,-62 332,-81 397,-81 397,-62 332,-62"/>
<text text-anchor="middle" x="364.5" y="-69" font-family="Helvetica,sans-Serif" font-size="10.00">exception</text>
</a>
</g>
</g>
<!-- Node1&#45;&gt;Node5 -->
<g id="edge4" class="edge">
<title>Node1&#45;&gt;Node5</title>
<path fill="none" stroke="midnightblue" d="M310.47,-123.19C322.79,-111.63 337,-98.3 347.76,-88.21"/>
<polygon fill="midnightblue" stroke="midnightblue" points="350.32,-90.6 355.22,-81.21 345.53,-85.5 350.32,-90.6"/>
</g>
<!-- Node6 -->
<g id="node6" class="node">
<title>Node6</title>
<g id="a_node6"><a xlink:href="visibility__control_8h.html" target="_top" xlink:title=" ">
<polygon fill="none" stroke="black" points="415,-56.5 415,-86.5 530,-86.5 530,-56.5 415,-56.5"/>
<text text-anchor="start" x="423" y="-74.5" font-family="Helvetica,sans-Serif" font-size="10.00">acados_solver_base</text>
<text text-anchor="middle" x="472.5" y="-63.5" font-family="Helvetica,sans-Serif" font-size="10.00">/visibility_control.h</text>
</a>
</g>
</g>
<!-- Node1&#45;&gt;Node6 -->
<g id="edge5" class="edge">
<title>Node1&#45;&gt;Node6</title>
<path fill="none" stroke="midnightblue" d="M345.91,-123.4C372.77,-112.6 403.56,-100.22 428.05,-90.37"/>
<polygon fill="midnightblue" stroke="midnightblue" points="429.47,-93.58 437.44,-86.6 426.86,-87.08 429.47,-93.58"/>
</g>
<!-- Node7 -->
<g id="node7" class="node">
<title>Node7</title>
<g id="a_node7"><a xlink:href="acados__types_8hpp.html" target="_top" xlink:title=" ">
<polygon fill="none" stroke="black" points="120,-56.5 120,-86.5 235,-86.5 235,-56.5 120,-56.5"/>
<text text-anchor="start" x="128" y="-74.5" font-family="Helvetica,sans-Serif" font-size="10.00">acados_solver_base</text>
<text text-anchor="middle" x="177.5" y="-63.5" font-family="Helvetica,sans-Serif" font-size="10.00">/acados_types.hpp</text>
</a>
</g>
</g>
<!-- Node1&#45;&gt;Node7 -->
<g id="edge6" class="edge">
<title>Node1&#45;&gt;Node7</title>
<path fill="none" stroke="midnightblue" d="M248.5,-123.4C234.55,-113.4 218.71,-102.05 205.54,-92.6"/>
<polygon fill="midnightblue" stroke="midnightblue" points="207.48,-89.69 197.31,-86.71 203.4,-95.38 207.48,-89.69"/>
</g>
<!-- Node10 -->
<g id="node10" class="node">
<title>Node10</title>
<g id="a_node10"><a xlink:title=" ">
<polygon fill="none" stroke="#bfbfbf" points="548.5,-62 548.5,-81 708.5,-81 708.5,-62 548.5,-62"/>
<text text-anchor="middle" x="628.5" y="-69" font-family="Helvetica,sans-Serif" font-size="10.00">acados_c/ocp_nlp_interface.h</text>
</a>
</g>
</g>
<!-- Node1&#45;&gt;Node10 -->
<g id="edge11" class="edge">
<title>Node1&#45;&gt;Node10</title>
<path fill="none" stroke="midnightblue" d="M389.36,-125.18C452.78,-111.21 530.42,-94.11 579.68,-83.26"/>
<polygon fill="midnightblue" stroke="midnightblue" points="580.73,-86.61 589.74,-81.04 579.22,-79.77 580.73,-86.61"/>
</g>
<!-- Node7&#45;&gt;Node2 -->
<g id="edge7" class="edge">
<title>Node7&#45;&gt;Node2</title>
<path fill="none" stroke="midnightblue" d="M144.56,-56.4C121.34,-46.46 90.51,-33.26 68.08,-23.66"/>
<polygon fill="midnightblue" stroke="midnightblue" points="69.3,-20.38 58.73,-19.66 66.54,-26.81 69.3,-20.38"/>
</g>
<!-- Node7&#45;&gt;Node4 -->
<g id="edge10" class="edge">
<title>Node7&#45;&gt;Node4</title>
<path fill="none" stroke="midnightblue" d="M163.52,-56.4C154.77,-47.58 143.47,-36.18 134.38,-27.02"/>
<polygon fill="midnightblue" stroke="midnightblue" points="136.61,-24.29 127.09,-19.66 131.64,-29.22 136.61,-24.29"/>
</g>
<!-- Node8 -->
<g id="node8" class="node">
<title>Node8</title>
<g id="a_node8"><a xlink:title=" ">
<polygon fill="none" stroke="#bfbfbf" points="160.5,-0.5 160.5,-19.5 204.5,-19.5 204.5,-0.5 160.5,-0.5"/>
<text text-anchor="middle" x="182.5" y="-7.5" font-family="Helvetica,sans-Serif" font-size="10.00">string</text>
</a>
</g>
</g>
<!-- Node7&#45;&gt;Node8 -->
<g id="edge8" class="edge">
<title>Node7&#45;&gt;Node8</title>
<path fill="none" stroke="midnightblue" d="M178.68,-56.4C179.35,-48.47 180.19,-38.46 180.92,-29.86"/>
<polygon fill="midnightblue" stroke="midnightblue" points="184.42,-29.92 181.77,-19.66 177.45,-29.33 184.42,-29.92"/>
</g>
<!-- Node9 -->
<g id="node9" class="node">
<title>Node9</title>
<g id="a_node9"><a xlink:title=" ">
<polygon fill="none" stroke="#bfbfbf" points="223,-0.5 223,-19.5 316,-19.5 316,-0.5 223,-0.5"/>
<text text-anchor="middle" x="269.5" y="-7.5" font-family="Helvetica,sans-Serif" font-size="10.00">unordered_map</text>
</a>
</g>
</g>
<!-- Node7&#45;&gt;Node9 -->
<g id="edge9" class="edge">
<title>Node7&#45;&gt;Node9</title>
<path fill="none" stroke="midnightblue" d="M199.3,-56.4C213.91,-46.95 233.07,-34.56 247.68,-25.11"/>
<polygon fill="midnightblue" stroke="midnightblue" points="249.62,-28.03 256.11,-19.66 245.82,-22.15 249.62,-28.03"/>
</g>
</g>
</svg>
