<?xml version="1.0" encoding="UTF-8" standalone="no"?>
<!DOCTYPE svg PUBLIC "-//W3C//DTD SVG 1.1//EN"
 "http://www.w3.org/Graphics/SVG/1.1/DTD/svg11.dtd">
<!-- Generated by graphviz version 2.43.0 (0)
 -->
<!-- Title: /home/runner/work/acados_solver_ros2/acados_solver_ros2/acados_solver_base/include/acados_solver_base/acados_solver_utils.hpp Pages: 1 -->
<svg width="739pt" height="258pt"
 viewBox="0.00 0.00 739.06 258.00" xmlns="http://www.w3.org/2000/svg" xmlns:xlink="http://www.w3.org/1999/xlink">
<g id="graph0" class="graph" transform="scale(1 1) rotate(0) translate(4 254)">
<title>/home/runner/work/acados_solver_ros2/acados_solver_ros2/acados_solver_base/include/acados_solver_base/acados_solver_utils.hpp</title>
<!-- Node1 -->
<g id="Node000001" class="node">
<title>Node1</title>
<g id="a_Node000001"><a xlink:title=" ">
<polygon fill="#999999" stroke="#666666" points="398.56,-250 207.56,-250 207.56,-187 398.56,-187 398.56,-250"/>
<text text-anchor="start" x="215.56" y="-238" font-family="Helvetica,sans-Serif" font-size="10.00">/home/runner/work/acados</text>
<text text-anchor="start" x="215.56" y="-227" font-family="Helvetica,sans-Serif" font-size="10.00">_solver_ros2/acados_solver</text>
<text text-anchor="start" x="215.56" y="-216" font-family="Helvetica,sans-Serif" font-size="10.00">_ros2/acados_solver_base/include</text>
<text text-anchor="start" x="215.56" y="-205" font-family="Helvetica,sans-Serif" font-size="10.00">/acados_solver_base/acados_solver</text>
<text text-anchor="middle" x="303.06" y="-194" font-family="Helvetica,sans-Serif" font-size="10.00">_utils.hpp</text>
</a>
</g>
</g>
<!-- Node2 -->
<g id="Node000002" class="node">
<title>Node2</title>
<g id="a_Node000002"><a xlink:title=" ">
<polygon fill="#e0e0e0" stroke="#999999" points="242.56,-19 165.56,-19 165.56,0 242.56,0 242.56,-19"/>
<text text-anchor="middle" x="204.06" y="-7" font-family="Helvetica,sans-Serif" font-size="10.00">Eigen/Dense</text>
</a>
</g>
</g>
<!-- Node1&#45;&gt;Node2 -->
<g id="edge1_Node000001_Node000002" class="edge">
<title>Node1&#45;&gt;Node2</title>
<g id="a_edge1_Node000001_Node000002"><a xlink:title=" ">
<path fill="none" stroke="#63b8ff" d="M207.27,-202.51C138.69,-186.23 51,-152.8 7.06,-85 -29.11,-29.18 85.6,-15.07 155.03,-11.58"/>
<polygon fill="#63b8ff" stroke="#63b8ff" points="155.5,-15.06 165.33,-11.12 155.19,-8.07 155.5,-15.06"/>
</a>
</g>
</g>
<!-- Node3 -->
<g id="Node000003" class="node">
<title>Node3</title>
<g id="a_Node000003"><a xlink:title=" ">
<polygon fill="#e0e0e0" stroke="#999999" points="731.06,-19 687.06,-19 687.06,0 731.06,0 731.06,-19"/>
<text text-anchor="middle" x="709.06" y="-7" font-family="Helvetica,sans-Serif" font-size="10.00">string</text>
</a>
</g>
</g>
<!-- Node1&#45;&gt;Node3 -->
<g id="edge2_Node000001_Node000003" class="edge">
<title>Node1&#45;&gt;Node3</title>
<g id="a_edge2_Node000001_Node000003"><a xlink:title=" ">
<path fill="none" stroke="#63b8ff" d="M398.85,-210.03C486.84,-198.01 614.69,-166.67 690.06,-85 704.04,-69.86 708.07,-45.89 709.07,-29.24"/>
<polygon fill="#63b8ff" stroke="#63b8ff" points="712.57,-29.18 709.36,-19.09 705.57,-28.98 712.57,-29.18"/>
</a>
</g>
</g>
<!-- Node4 -->
<g id="Node000004" class="node">
<title>Node4</title>
<g id="a_Node000004"><a xlink:title=" ">
<polygon fill="#e0e0e0" stroke="#999999" points="176.06,-79.5 16.06,-79.5 16.06,-60.5 176.06,-60.5 176.06,-79.5"/>
<text text-anchor="middle" x="96.06" y="-67.5" font-family="Helvetica,sans-Serif" font-size="10.00">acados_c/ocp_nlp_interface.h</text>
</a>
</g>
</g>
<!-- Node1&#45;&gt;Node4 -->
<g id="edge3_Node000001_Node000004" class="edge">
<title>Node1&#45;&gt;Node4</title>
<g id="a_edge3_Node000001_Node000004"><a xlink:title=" ">
<path fill="none" stroke="#63b8ff" d="M259.92,-186.97C216.17,-156 150.29,-109.38 116.96,-85.79"/>
<polygon fill="#63b8ff" stroke="#63b8ff" points="118.66,-82.7 108.47,-79.78 114.61,-88.41 118.66,-82.7"/>
</a>
</g>
</g>
<!-- Node5 -->
<g id="Node000005" class="node">
<title>Node5</title>
<g id="a_Node000005"><a xlink:href="acados__solver_8hpp.html" target="_top" xlink:title=" ">
<polygon fill="white" stroke="#666666" points="360.56,-151 245.56,-151 245.56,-121 360.56,-121 360.56,-151"/>
<text text-anchor="start" x="253.56" y="-139" font-family="Helvetica,sans-Serif" font-size="10.00">acados_solver_base</text>
<text text-anchor="middle" x="303.06" y="-128" font-family="Helvetica,sans-Serif" font-size="10.00">/acados_solver.hpp</text>
</a>
</g>
</g>
<!-- Node1&#45;&gt;Node5 -->
<g id="edge4_Node000001_Node000005" class="edge">
<title>Node1&#45;&gt;Node5</title>
<g id="a_edge4_Node000001_Node000005"><a xlink:title=" ">
<path fill="none" stroke="#63b8ff" d="M303.06,-186.61C303.06,-178.19 303.06,-169.2 303.06,-161.22"/>
<polygon fill="#63b8ff" stroke="#63b8ff" points="306.56,-161.1 303.06,-151.1 299.56,-161.1 306.56,-161.1"/>
</a>
</g>
</g>
<!-- Node10 -->
<g id="Node000010" class="node">
<title>Node10</title>
<g id="a_Node000010"><a xlink:href="acados__types_8hpp.html" target="_top" xlink:title=" ">
<polygon fill="white" stroke="#666666" points="680.56,-85 565.56,-85 565.56,-55 680.56,-55 680.56,-85"/>
<text text-anchor="start" x="573.56" y="-73" font-family="Helvetica,sans-Serif" font-size="10.00">acados_solver_base</text>
<text text-anchor="middle" x="623.06" y="-62" font-family="Helvetica,sans-Serif" font-size="10.00">/acados_types.hpp</text>
</a>
</g>
</g>
<!-- Node1&#45;&gt;Node10 -->
<g id="edge16_Node000001_Node000010" class="edge">
<title>Node1&#45;&gt;Node10</title>
<g id="a_edge16_Node000001_Node000010"><a xlink:title=" ">
<path fill="none" stroke="#63b8ff" d="M369.76,-186.97C434.21,-157.46 529.71,-113.74 583.15,-89.28"/>
<polygon fill="#63b8ff" stroke="#63b8ff" points="584.66,-92.43 592.3,-85.08 581.75,-86.07 584.66,-92.43"/>
</a>
</g>
</g>
<!-- Node5&#45;&gt;Node2 -->
<g id="edge5_Node000005_Node000002" class="edge">
<title>Node5&#45;&gt;Node2</title>
<g id="a_edge5_Node000005_Node000002"><a xlink:title=" ">
<path fill="none" stroke="#63b8ff" d="M272.77,-120.97C257.44,-112.5 239.67,-100.36 228.06,-85 215.67,-68.6 209.54,-45.57 206.6,-29.47"/>
<polygon fill="#63b8ff" stroke="#63b8ff" points="210,-28.5 204.98,-19.16 203.08,-29.59 210,-28.5"/>
</a>
</g>
</g>
<!-- Node5&#45;&gt;Node4 -->
<g id="edge15_Node000005_Node000004" class="edge">
<title>Node5&#45;&gt;Node4</title>
<g id="a_edge15_Node000005_Node000004"><a xlink:title=" ">
<path fill="none" stroke="#63b8ff" d="M257.64,-120.95C220.38,-109.43 168.27,-93.32 133.4,-82.54"/>
<polygon fill="#63b8ff" stroke="#63b8ff" points="134.2,-79.13 123.61,-79.52 132.13,-85.82 134.2,-79.13"/>
</a>
</g>
</g>
<!-- Node6 -->
<g id="Node000006" class="node">
<title>Node6</title>
<g id="a_Node000006"><a xlink:title=" ">
<polygon fill="#e0e0e0" stroke="#999999" points="547.06,-79.5 487.06,-79.5 487.06,-60.5 547.06,-60.5 547.06,-79.5"/>
<text text-anchor="middle" x="517.06" y="-67.5" font-family="Helvetica,sans-Serif" font-size="10.00">iostream</text>
</a>
</g>
</g>
<!-- Node5&#45;&gt;Node6 -->
<g id="edge6_Node000005_Node000006" class="edge">
<title>Node5&#45;&gt;Node6</title>
<g id="a_edge6_Node000005_Node000006"><a xlink:title=" ">
<path fill="none" stroke="#63b8ff" d="M354.69,-121C389.43,-111.37 436.18,-98.02 477.06,-85 479.31,-84.28 481.62,-83.53 483.95,-82.75"/>
<polygon fill="#63b8ff" stroke="#63b8ff" points="485.11,-86.05 493.45,-79.51 482.86,-79.43 485.11,-86.05"/>
</a>
</g>
</g>
<!-- Node7 -->
<g id="Node000007" class="node">
<title>Node7</title>
<g id="a_Node000007"><a xlink:title=" ">
<polygon fill="#e0e0e0" stroke="#999999" points="432.56,-19 385.56,-19 385.56,0 432.56,0 432.56,-19"/>
<text text-anchor="middle" x="409.06" y="-7" font-family="Helvetica,sans-Serif" font-size="10.00">vector</text>
</a>
</g>
</g>
<!-- Node5&#45;&gt;Node7 -->
<g id="edge7_Node000005_Node000007" class="edge">
<title>Node5&#45;&gt;Node7</title>
<g id="a_edge7_Node000005_Node000007"><a xlink:title=" ">
<path fill="none" stroke="#63b8ff" d="M286.33,-120.93C268.62,-104.32 245.25,-76.27 261.06,-55 287.18,-19.88 340.11,-11.45 375.07,-9.95"/>
<polygon fill="#63b8ff" stroke="#63b8ff" points="375.39,-13.45 385.3,-9.69 375.21,-6.45 375.39,-13.45"/>
</a>
</g>
</g>
<!-- Node8 -->
<g id="Node000008" class="node">
<title>Node8</title>
<g id="a_Node000008"><a xlink:title=" ">
<polygon fill="#e0e0e0" stroke="#999999" points="335.56,-79.5 270.56,-79.5 270.56,-60.5 335.56,-60.5 335.56,-79.5"/>
<text text-anchor="middle" x="303.06" y="-67.5" font-family="Helvetica,sans-Serif" font-size="10.00">exception</text>
</a>
</g>
</g>
<!-- Node5&#45;&gt;Node8 -->
<g id="edge8_Node000005_Node000008" class="edge">
<title>Node5&#45;&gt;Node8</title>
<g id="a_edge8_Node000005_Node000008"><a xlink:title=" ">
<path fill="none" stroke="#63b8ff" d="M303.06,-120.8C303.06,-111.7 303.06,-99.79 303.06,-89.9"/>
<polygon fill="#63b8ff" stroke="#63b8ff" points="306.56,-89.84 303.06,-79.84 299.56,-89.84 306.56,-89.84"/>
</a>
</g>
</g>
<!-- Node9 -->
<g id="Node000009" class="node">
<title>Node9</title>
<g id="a_Node000009"><a xlink:href="visibility__control_8h.html" target="_top" xlink:title=" ">
<polygon fill="white" stroke="#666666" points="468.56,-85 353.56,-85 353.56,-55 468.56,-55 468.56,-85"/>
<text text-anchor="start" x="361.56" y="-73" font-family="Helvetica,sans-Serif" font-size="10.00">acados_solver_base</text>
<text text-anchor="middle" x="411.06" y="-62" font-family="Helvetica,sans-Serif" font-size="10.00">/visibility_control.h</text>
</a>
</g>
</g>
<!-- Node5&#45;&gt;Node9 -->
<g id="edge9_Node000005_Node000009" class="edge">
<title>Node5&#45;&gt;Node9</title>
<g id="a_edge9_Node000005_Node000009"><a xlink:title=" ">
<path fill="none" stroke="#63b8ff" d="M326.77,-120.95C341.96,-111.95 361.88,-100.14 378.55,-90.27"/>
<polygon fill="#63b8ff" stroke="#63b8ff" points="380.6,-93.12 387.42,-85.01 377.03,-87.1 380.6,-93.12"/>
</a>
</g>
</g>
<!-- Node5&#45;&gt;Node10 -->
<g id="edge10_Node000005_Node000010" class="edge">
<title>Node5&#45;&gt;Node10</title>
<g id="a_edge10_Node000005_Node000010"><a xlink:title=" ">
<path fill="none" stroke="#63b8ff" d="M360.63,-123.81C409.72,-114.22 482.46,-99.92 555.49,-85.1"/>
<polygon fill="#63b8ff" stroke="#63b8ff" points="556.23,-88.53 565.33,-83.11 554.83,-81.67 556.23,-88.53"/>
</a>
</g>
</g>
<!-- Node10&#45;&gt;Node2 -->
<g id="edge11_Node000010_Node000002" class="edge">
<title>Node10&#45;&gt;Node2</title>
<g id="a_edge11_Node000010_Node000002"><a xlink:title=" ">
<path fill="none" stroke="#63b8ff" d="M565.38,-56.64C562.23,-56.06 559.11,-55.51 556.06,-55 448.29,-36.96 320.86,-22.55 252.76,-15.41"/>
<polygon fill="#63b8ff" stroke="#63b8ff" points="253.07,-11.92 242.76,-14.36 252.34,-18.88 253.07,-11.92"/>
</a>
</g>
</g>
<!-- Node10&#45;&gt;Node3 -->
<g id="edge12_Node000010_Node000003" class="edge">
<title>Node10&#45;&gt;Node3</title>
<g id="a_edge12_Node000010_Node000003"><a xlink:title=" ">
<path fill="none" stroke="#63b8ff" d="M643.88,-54.84C657.21,-45.77 674.46,-34.04 687.86,-24.92"/>
<polygon fill="#63b8ff" stroke="#63b8ff" points="690.13,-27.61 696.43,-19.09 686.19,-21.83 690.13,-27.61"/>
</a>
</g>
</g>
<!-- Node10&#45;&gt;Node7 -->
<g id="edge14_Node000010_Node000007" class="edge">
<title>Node10&#45;&gt;Node7</title>
<g id="a_edge14_Node000010_Node000007"><a xlink:title=" ">
<path fill="none" stroke="#63b8ff" d="M571.81,-54.99C531.8,-44.05 477.37,-29.17 442.72,-19.7"/>
<polygon fill="#63b8ff" stroke="#63b8ff" points="443.21,-16.21 432.64,-16.95 441.36,-22.96 443.21,-16.21"/>
</a>
</g>
</g>
<!-- Node11 -->
<g id="Node000011" class="node">
<title>Node11</title>
<g id="a_Node000011"><a xlink:title=" ">
<polygon fill="#e0e0e0" stroke="#999999" points="668.56,-19 575.56,-19 575.56,0 668.56,0 668.56,-19"/>
<text text-anchor="middle" x="622.06" y="-7" font-family="Helvetica,sans-Serif" font-size="10.00">unordered_map</text>
</a>
</g>
</g>
<!-- Node10&#45;&gt;Node11 -->
<g id="edge13_Node000010_Node000011" class="edge">
<title>Node10&#45;&gt;Node11</title>
<g id="a_edge13_Node000010_Node000011"><a xlink:title=" ">
<path fill="none" stroke="#63b8ff" d="M622.82,-54.84C622.69,-47.21 622.53,-37.7 622.39,-29.45"/>
<polygon fill="#63b8ff" stroke="#63b8ff" points="625.88,-29.2 622.21,-19.27 618.89,-29.32 625.88,-29.2"/>
</a>
</g>
</g>
</g>
</svg>
