<?xml version="1.0" encoding="UTF-8" standalone="no"?>
<!DOCTYPE svg PUBLIC "-//W3C//DTD SVG 1.1//EN"
 "http://www.w3.org/Graphics/SVG/1.1/DTD/svg11.dtd">
<!-- Generated by graphviz version 2.43.0 (0)
 -->
<!-- Title: /home/runner/work/acados_solver_ros2/acados_solver_ros2/acados_solver_base/include/acados_solver_base/acados_solver_utils.hpp Pages: 1 -->
<svg width="739pt" height="262pt"
 viewBox="0.00 0.00 739.05 262.00" xmlns="http://www.w3.org/2000/svg" xmlns:xlink="http://www.w3.org/1999/xlink">
<g id="graph0" class="graph" transform="scale(1 1) rotate(0) translate(4 258)">
<title>/home/runner/work/acados_solver_ros2/acados_solver_ros2/acados_solver_base/include/acados_solver_base/acados_solver_utils.hpp</title>
<!-- Node1 -->
<g id="node1" class="node">
<title>Node1</title>
<g id="a_node1"><a xlink:title=" ">
<polygon fill="#bfbfbf" stroke="black" points="207.55,-190.5 207.55,-253.5 398.55,-253.5 398.55,-190.5 207.55,-190.5"/>
<text text-anchor="start" x="215.55" y="-241.5" font-family="Helvetica,sans-Serif" font-size="10.00">/home/runner/work/acados</text>
<text text-anchor="start" x="215.55" y="-230.5" font-family="Helvetica,sans-Serif" font-size="10.00">_solver_ros2/acados_solver</text>
<text text-anchor="start" x="215.55" y="-219.5" font-family="Helvetica,sans-Serif" font-size="10.00">_ros2/acados_solver_base/include</text>
<text text-anchor="start" x="215.55" y="-208.5" font-family="Helvetica,sans-Serif" font-size="10.00">/acados_solver_base/acados_solver</text>
<text text-anchor="middle" x="303.05" y="-197.5" font-family="Helvetica,sans-Serif" font-size="10.00">_utils.hpp</text>
</a>
</g>
</g>
<!-- Node2 -->
<g id="node2" class="node">
<title>Node2</title>
<g id="a_node2"><a xlink:title=" ">
<polygon fill="none" stroke="#bfbfbf" points="165.55,-0.5 165.55,-19.5 242.55,-19.5 242.55,-0.5 165.55,-0.5"/>
<text text-anchor="middle" x="204.05" y="-7.5" font-family="Helvetica,sans-Serif" font-size="10.00">Eigen/Dense</text>
</a>
</g>
</g>
<!-- Node1&#45;&gt;Node2 -->
<g id="edge1" class="edge">
<title>Node1&#45;&gt;Node2</title>
<path fill="none" stroke="midnightblue" d="M207.23,-205.52C138.62,-188.89 50.93,-155.03 7.05,-87 -29.09,-30.96 85.61,-16.19 155.02,-12.33"/>
<polygon fill="midnightblue" stroke="midnightblue" points="155.51,-15.81 165.33,-11.82 155.17,-8.82 155.51,-15.81"/>
</g>
<!-- Node3 -->
<g id="node3" class="node">
<title>Node3</title>
<g id="a_node3"><a xlink:title=" ">
<polygon fill="none" stroke="#bfbfbf" points="687.05,-0.5 687.05,-19.5 731.05,-19.5 731.05,-0.5 687.05,-0.5"/>
<text text-anchor="middle" x="709.05" y="-7.5" font-family="Helvetica,sans-Serif" font-size="10.00">string</text>
</a>
</g>
</g>
<!-- Node1&#45;&gt;Node3 -->
<g id="edge2" class="edge">
<title>Node1&#45;&gt;Node3</title>
<path fill="none" stroke="midnightblue" d="M398.95,-213.21C487.02,-200.88 614.92,-169.08 690.05,-87 704.23,-71.51 708.22,-47.07 709.15,-30.1"/>
<polygon fill="midnightblue" stroke="midnightblue" points="712.66,-29.83 709.4,-19.75 705.66,-29.66 712.66,-29.83"/>
</g>
<!-- Node4 -->
<g id="node4" class="node">
<title>Node4</title>
<g id="a_node4"><a xlink:title=" ">
<polygon fill="none" stroke="#bfbfbf" points="16.05,-62 16.05,-81 176.05,-81 176.05,-62 16.05,-62"/>
<text text-anchor="middle" x="96.05" y="-69" font-family="Helvetica,sans-Serif" font-size="10.00">acados_c/ocp_nlp_interface.h</text>
</a>
</g>
</g>
<!-- Node1&#45;&gt;Node4 -->
<g id="edge3" class="edge">
<title>Node1&#45;&gt;Node4</title>
<path fill="none" stroke="midnightblue" d="M260.41,-190.41C216.49,-158.9 149.89,-111.12 116.56,-87.21"/>
<polygon fill="midnightblue" stroke="midnightblue" points="118.26,-84.12 108.09,-81.14 114.18,-89.81 118.26,-84.12"/>
</g>
<!-- Node5 -->
<g id="node5" class="node">
<title>Node5</title>
<g id="a_node5"><a xlink:href="acados__solver_8hpp.html" target="_top" xlink:title=" ">
<polygon fill="none" stroke="black" points="245.55,-123.5 245.55,-153.5 360.55,-153.5 360.55,-123.5 245.55,-123.5"/>
<text text-anchor="start" x="253.55" y="-141.5" font-family="Helvetica,sans-Serif" font-size="10.00">acados_solver_base</text>
<text text-anchor="middle" x="303.05" y="-130.5" font-family="Helvetica,sans-Serif" font-size="10.00">/acados_solver.hpp</text>
</a>
</g>
</g>
<!-- Node1&#45;&gt;Node5 -->
<g id="edge4" class="edge">
<title>Node1&#45;&gt;Node5</title>
<path fill="none" stroke="midnightblue" d="M303.05,-190.19C303.05,-181.41 303.05,-171.98 303.05,-163.66"/>
<polygon fill="midnightblue" stroke="midnightblue" points="306.55,-163.52 303.05,-153.52 299.55,-163.52 306.55,-163.52"/>
</g>
<!-- Node10 -->
<g id="node10" class="node">
<title>Node10</title>
<g id="a_node10"><a xlink:href="acados__types_8hpp.html" target="_top" xlink:title=" ">
<polygon fill="none" stroke="black" points="565.55,-56.5 565.55,-86.5 680.55,-86.5 680.55,-56.5 565.55,-56.5"/>
<text text-anchor="start" x="573.55" y="-74.5" font-family="Helvetica,sans-Serif" font-size="10.00">acados_solver_base</text>
<text text-anchor="middle" x="623.05" y="-63.5" font-family="Helvetica,sans-Serif" font-size="10.00">/acados_types.hpp</text>
</a>
</g>
</g>
<!-- Node1&#45;&gt;Node10 -->
<g id="edge16" class="edge">
<title>Node1&#45;&gt;Node10</title>
<path fill="none" stroke="midnightblue" d="M368.97,-190.41C433.52,-160.45 529.76,-115.79 583.36,-90.92"/>
<polygon fill="midnightblue" stroke="midnightblue" points="584.94,-94.04 592.54,-86.66 582,-87.69 584.94,-94.04"/>
</g>
<!-- Node5&#45;&gt;Node2 -->
<g id="edge5" class="edge">
<title>Node5&#45;&gt;Node2</title>
<path fill="none" stroke="midnightblue" d="M272.72,-123.29C257.38,-114.73 239.62,-102.46 228.05,-87 215.4,-70.07 209.3,-46.29 206.44,-29.86"/>
<polygon fill="midnightblue" stroke="midnightblue" points="209.88,-29.2 204.94,-19.83 202.96,-30.24 209.88,-29.2"/>
</g>
<!-- Node5&#45;&gt;Node4 -->
<g id="edge15" class="edge">
<title>Node5&#45;&gt;Node4</title>
<path fill="none" stroke="midnightblue" d="M258.39,-123.48C220.96,-111.72 168.16,-95.14 133.06,-84.12"/>
<polygon fill="midnightblue" stroke="midnightblue" points="133.8,-80.69 123.21,-81.03 131.71,-87.36 133.8,-80.69"/>
</g>
<!-- Node6 -->
<g id="node6" class="node">
<title>Node6</title>
<g id="a_node6"><a xlink:title=" ">
<polygon fill="none" stroke="#bfbfbf" points="487.05,-62 487.05,-81 547.05,-81 547.05,-62 487.05,-62"/>
<text text-anchor="middle" x="517.05" y="-69" font-family="Helvetica,sans-Serif" font-size="10.00">iostream</text>
</a>
</g>
</g>
<!-- Node5&#45;&gt;Node6 -->
<g id="edge6" class="edge">
<title>Node5&#45;&gt;Node6</title>
<path fill="none" stroke="midnightblue" d="M354.72,-123.46C389.47,-113.78 436.23,-100.31 477.05,-87 479.6,-86.17 482.23,-85.28 484.86,-84.38"/>
<polygon fill="midnightblue" stroke="midnightblue" points="486.04,-87.67 494.3,-81.04 483.7,-81.07 486.04,-87.67"/>
</g>
<!-- Node7 -->
<g id="node7" class="node">
<title>Node7</title>
<g id="a_node7"><a xlink:title=" ">
<polygon fill="none" stroke="#bfbfbf" points="385.55,-0.5 385.55,-19.5 432.55,-19.5 432.55,-0.5 385.55,-0.5"/>
<text text-anchor="middle" x="409.05" y="-7.5" font-family="Helvetica,sans-Serif" font-size="10.00">vector</text>
</a>
</g>
</g>
<!-- Node5&#45;&gt;Node7 -->
<g id="edge7" class="edge">
<title>Node5&#45;&gt;Node7</title>
<path fill="none" stroke="midnightblue" d="M286.56,-123.45C268.75,-106.55 244.94,-77.74 261.05,-56 287.14,-20.8 340.07,-12.19 375.05,-10.57"/>
<polygon fill="midnightblue" stroke="midnightblue" points="375.38,-14.07 385.28,-10.27 375.18,-7.07 375.38,-14.07"/>
</g>
<!-- Node8 -->
<g id="node8" class="node">
<title>Node8</title>
<g id="a_node8"><a xlink:title=" ">
<polygon fill="none" stroke="#bfbfbf" points="270.55,-62 270.55,-81 335.55,-81 335.55,-62 270.55,-62"/>
<text text-anchor="middle" x="303.05" y="-69" font-family="Helvetica,sans-Serif" font-size="10.00">exception</text>
</a>
</g>
</g>
<!-- Node5&#45;&gt;Node8 -->
<g id="edge8" class="edge">
<title>Node5&#45;&gt;Node8</title>
<path fill="none" stroke="midnightblue" d="M303.05,-123.4C303.05,-114.06 303.05,-101.71 303.05,-91.52"/>
<polygon fill="midnightblue" stroke="midnightblue" points="306.55,-91.19 303.05,-81.19 299.55,-91.19 306.55,-91.19"/>
</g>
<!-- Node9 -->
<g id="node9" class="node">
<title>Node9</title>
<g id="a_node9"><a xlink:href="visibility__control_8h.html" target="_top" xlink:title=" ">
<polygon fill="none" stroke="black" points="353.55,-56.5 353.55,-86.5 468.55,-86.5 468.55,-56.5 353.55,-56.5"/>
<text text-anchor="start" x="361.55" y="-74.5" font-family="Helvetica,sans-Serif" font-size="10.00">acados_solver_base</text>
<text text-anchor="middle" x="411.05" y="-63.5" font-family="Helvetica,sans-Serif" font-size="10.00">/visibility_control.h</text>
</a>
</g>
</g>
<!-- Node5&#45;&gt;Node9 -->
<g id="edge9" class="edge">
<title>Node5&#45;&gt;Node9</title>
<path fill="none" stroke="midnightblue" d="M326.49,-123.4C341.77,-114.2 361.93,-102.07 378.73,-91.95"/>
<polygon fill="midnightblue" stroke="midnightblue" points="380.9,-94.73 387.67,-86.58 377.29,-88.73 380.9,-94.73"/>
</g>
<!-- Node5&#45;&gt;Node10 -->
<g id="edge10" class="edge">
<title>Node5&#45;&gt;Node10</title>
<path fill="none" stroke="midnightblue" d="M360.63,-126.28C409.74,-116.65 482.49,-102.24 555.49,-87.1"/>
<polygon fill="midnightblue" stroke="midnightblue" points="556.24,-90.52 565.32,-85.06 554.82,-83.66 556.24,-90.52"/>
</g>
<!-- Node10&#45;&gt;Node2 -->
<g id="edge11" class="edge">
<title>Node10&#45;&gt;Node2</title>
<path fill="none" stroke="midnightblue" d="M565.37,-57.69C562.23,-57.09 559.1,-56.52 556.05,-56 448.34,-37.49 320.89,-23.03 252.77,-15.89"/>
<polygon fill="midnightblue" stroke="midnightblue" points="253.07,-12.4 242.76,-14.85 252.34,-19.36 253.07,-12.4"/>
</g>
<!-- Node10&#45;&gt;Node3 -->
<g id="edge12" class="edge">
<title>Node10&#45;&gt;Node3</title>
<path fill="none" stroke="midnightblue" d="M643.44,-56.4C656.96,-47.04 674.67,-34.79 688.27,-25.38"/>
<polygon fill="midnightblue" stroke="midnightblue" points="690.31,-28.23 696.54,-19.66 686.33,-22.47 690.31,-28.23"/>
</g>
<!-- Node10&#45;&gt;Node7 -->
<g id="edge14" class="edge">
<title>Node10&#45;&gt;Node7</title>
<path fill="none" stroke="midnightblue" d="M572.61,-56.47C532.46,-45.31 477.4,-30 442.52,-20.31"/>
<polygon fill="midnightblue" stroke="midnightblue" points="443.39,-16.91 432.82,-17.61 441.52,-23.66 443.39,-16.91"/>
</g>
<!-- Node11 -->
<g id="node11" class="node">
<title>Node11</title>
<g id="a_node11"><a xlink:title=" ">
<polygon fill="none" stroke="#bfbfbf" points="575.55,-0.5 575.55,-19.5 668.55,-19.5 668.55,-0.5 575.55,-0.5"/>
<text text-anchor="middle" x="622.05" y="-7.5" font-family="Helvetica,sans-Serif" font-size="10.00">unordered_map</text>
</a>
</g>
</g>
<!-- Node10&#45;&gt;Node11 -->
<g id="edge13" class="edge">
<title>Node10&#45;&gt;Node11</title>
<path fill="none" stroke="midnightblue" d="M622.82,-56.4C622.68,-48.47 622.52,-38.46 622.37,-29.86"/>
<polygon fill="midnightblue" stroke="midnightblue" points="625.87,-29.6 622.2,-19.66 618.87,-29.72 625.87,-29.6"/>
</g>
</g>
</svg>
