<?xml version="1.0" encoding="UTF-8" standalone="no"?>
<!DOCTYPE svg PUBLIC "-//W3C//DTD SVG 1.1//EN"
 "http://www.w3.org/Graphics/SVG/1.1/DTD/svg11.dtd">
<!-- Generated by graphviz version 2.43.0 (0)
 -->
<!-- Title: /home/runner/work/acados_solver_ros2/acados_solver_ros2/acados_solver_base/include/acados_solver_base/acados_solver.hpp Pages: 1 -->
<svg width="717pt" height="181pt"
 viewBox="0.00 0.00 716.50 181.00" xmlns="http://www.w3.org/2000/svg" xmlns:xlink="http://www.w3.org/1999/xlink">
<g id="graph0" class="graph" transform="scale(1 1) rotate(0) translate(4 177)">
<title>/home/runner/work/acados_solver_ros2/acados_solver_ros2/acados_solver_base/include/acados_solver_base/acados_solver.hpp</title>
<!-- Node1 -->
<g id="Node000001" class="node">
<title>Node1</title>
<g id="a_Node000001"><a xlink:title=" ">
<polygon fill="#999999" stroke="#666666" points="389,-173 178,-173 178,-121 389,-121 389,-173"/>
<text text-anchor="start" x="186" y="-161" font-family="Helvetica,sans-Serif" font-size="10.00">/home/runner/work/acados</text>
<text text-anchor="start" x="186" y="-150" font-family="Helvetica,sans-Serif" font-size="10.00">_solver_ros2/acados_solver</text>
<text text-anchor="start" x="186" y="-139" font-family="Helvetica,sans-Serif" font-size="10.00">_ros2/acados_solver_base/include</text>
<text text-anchor="middle" x="283.5" y="-128" font-family="Helvetica,sans-Serif" font-size="10.00">/acados_solver_base/acados_solver.hpp</text>
</a>
</g>
</g>
<!-- Node2 -->
<g id="Node000002" class="node">
<title>Node2</title>
<g id="a_Node000002"><a xlink:title=" ">
<polygon fill="#e0e0e0" stroke="#999999" points="77,-19 0,-19 0,0 77,0 77,-19"/>
<text text-anchor="middle" x="38.5" y="-7" font-family="Helvetica,sans-Serif" font-size="10.00">Eigen/Dense</text>
</a>
</g>
</g>
<!-- Node1&#45;&gt;Node2 -->
<g id="edge1_Node000001_Node000002" class="edge">
<title>Node1&#45;&gt;Node2</title>
<g id="a_edge1_Node000001_Node000002"><a xlink:title=" ">
<path fill="none" stroke="#63b8ff" d="M177.66,-121.72C151.09,-112.74 123.59,-100.77 100.5,-85 78.43,-69.93 59.88,-44.88 48.98,-28.04"/>
<polygon fill="#63b8ff" stroke="#63b8ff" points="51.73,-25.84 43.47,-19.21 45.79,-29.54 51.73,-25.84"/>
</a>
</g>
</g>
<!-- Node3 -->
<g id="Node000003" class="node">
<title>Node3</title>
<g id="a_Node000003"><a xlink:title=" ">
<polygon fill="#e0e0e0" stroke="#999999" points="313.5,-79.5 253.5,-79.5 253.5,-60.5 313.5,-60.5 313.5,-79.5"/>
<text text-anchor="middle" x="283.5" y="-67.5" font-family="Helvetica,sans-Serif" font-size="10.00">iostream</text>
</a>
</g>
</g>
<!-- Node1&#45;&gt;Node3 -->
<g id="edge2_Node000001_Node000003" class="edge">
<title>Node1&#45;&gt;Node3</title>
<g id="a_edge2_Node000001_Node000003"><a xlink:title=" ">
<path fill="none" stroke="#63b8ff" d="M283.5,-120.61C283.5,-110.58 283.5,-99.25 283.5,-89.96"/>
<polygon fill="#63b8ff" stroke="#63b8ff" points="287,-89.85 283.5,-79.85 280,-89.85 287,-89.85"/>
</a>
</g>
</g>
<!-- Node4 -->
<g id="Node000004" class="node">
<title>Node4</title>
<g id="a_Node000004"><a xlink:title=" ">
<polygon fill="#e0e0e0" stroke="#999999" points="142,-19 95,-19 95,0 142,0 142,-19"/>
<text text-anchor="middle" x="118.5" y="-7" font-family="Helvetica,sans-Serif" font-size="10.00">vector</text>
</a>
</g>
</g>
<!-- Node1&#45;&gt;Node4 -->
<g id="edge3_Node000001_Node000004" class="edge">
<title>Node1&#45;&gt;Node4</title>
<g id="a_edge3_Node000001_Node000004"><a xlink:title=" ">
<path fill="none" stroke="#63b8ff" d="M177.79,-130.92C151.61,-121.91 126.51,-107.62 110.5,-85 98.91,-68.62 104.19,-44.94 110.22,-28.7"/>
<polygon fill="#63b8ff" stroke="#63b8ff" points="113.54,-29.83 114.12,-19.25 107.07,-27.16 113.54,-29.83"/>
</a>
</g>
</g>
<!-- Node5 -->
<g id="Node000005" class="node">
<title>Node5</title>
<g id="a_Node000005"><a xlink:title=" ">
<polygon fill="#e0e0e0" stroke="#999999" points="397,-79.5 332,-79.5 332,-60.5 397,-60.5 397,-79.5"/>
<text text-anchor="middle" x="364.5" y="-67.5" font-family="Helvetica,sans-Serif" font-size="10.00">exception</text>
</a>
</g>
</g>
<!-- Node1&#45;&gt;Node5 -->
<g id="edge4_Node000001_Node000005" class="edge">
<title>Node1&#45;&gt;Node5</title>
<g id="a_edge4_Node000001_Node000005"><a xlink:title=" ">
<path fill="none" stroke="#63b8ff" d="M310.92,-120.61C323.07,-109.37 336.96,-96.5 347.56,-86.68"/>
<polygon fill="#63b8ff" stroke="#63b8ff" points="349.98,-89.21 354.94,-79.85 345.22,-84.08 349.98,-89.21"/>
</a>
</g>
</g>
<!-- Node6 -->
<g id="Node000006" class="node">
<title>Node6</title>
<g id="a_Node000006"><a xlink:href="visibility__control_8h.html" target="_top" xlink:title=" ">
<polygon fill="white" stroke="#666666" points="530,-85 415,-85 415,-55 530,-55 530,-85"/>
<text text-anchor="start" x="423" y="-73" font-family="Helvetica,sans-Serif" font-size="10.00">acados_solver_base</text>
<text text-anchor="middle" x="472.5" y="-62" font-family="Helvetica,sans-Serif" font-size="10.00">/visibility_control.h</text>
</a>
</g>
</g>
<!-- Node1&#45;&gt;Node6 -->
<g id="edge5_Node000001_Node000006" class="edge">
<title>Node1&#45;&gt;Node6</title>
<g id="a_edge5_Node000001_Node000006"><a xlink:title=" ">
<path fill="none" stroke="#63b8ff" d="M346.7,-120.92C373.32,-110.36 403.68,-98.31 427.9,-88.7"/>
<polygon fill="#63b8ff" stroke="#63b8ff" points="429.19,-91.95 437.2,-85.01 426.61,-85.44 429.19,-91.95"/>
</a>
</g>
</g>
<!-- Node7 -->
<g id="Node000007" class="node">
<title>Node7</title>
<g id="a_Node000007"><a xlink:href="acados__types_8hpp.html" target="_top" xlink:title=" ">
<polygon fill="white" stroke="#666666" points="235,-85 120,-85 120,-55 235,-55 235,-85"/>
<text text-anchor="start" x="128" y="-73" font-family="Helvetica,sans-Serif" font-size="10.00">acados_solver_base</text>
<text text-anchor="middle" x="177.5" y="-62" font-family="Helvetica,sans-Serif" font-size="10.00">/acados_types.hpp</text>
</a>
</g>
</g>
<!-- Node1&#45;&gt;Node7 -->
<g id="edge6_Node000001_Node000007" class="edge">
<title>Node1&#45;&gt;Node7</title>
<g id="a_edge6_Node000001_Node000007"><a xlink:title=" ">
<path fill="none" stroke="#63b8ff" d="M247.91,-120.82C234.23,-111.14 218.8,-100.22 205.88,-91.08"/>
<polygon fill="#63b8ff" stroke="#63b8ff" points="207.58,-88 197.4,-85.08 203.54,-93.71 207.58,-88"/>
</a>
</g>
</g>
<!-- Node10 -->
<g id="Node000010" class="node">
<title>Node10</title>
<g id="a_Node000010"><a xlink:title=" ">
<polygon fill="#e0e0e0" stroke="#999999" points="708.5,-79.5 548.5,-79.5 548.5,-60.5 708.5,-60.5 708.5,-79.5"/>
<text text-anchor="middle" x="628.5" y="-67.5" font-family="Helvetica,sans-Serif" font-size="10.00">acados_c/ocp_nlp_interface.h</text>
</a>
</g>
</g>
<!-- Node1&#45;&gt;Node10 -->
<g id="edge11_Node000001_Node000010" class="edge">
<title>Node1&#45;&gt;Node10</title>
<g id="a_edge11_Node000001_Node000010"><a xlink:title=" ">
<path fill="none" stroke="#63b8ff" d="M389.36,-122.99C452.6,-109.24 529.96,-92.42 579.24,-81.71"/>
<polygon fill="#63b8ff" stroke="#63b8ff" points="580.29,-85.06 589.32,-79.52 578.8,-78.22 580.29,-85.06"/>
</a>
</g>
</g>
<!-- Node7&#45;&gt;Node2 -->
<g id="edge7_Node000007_Node000002" class="edge">
<title>Node7&#45;&gt;Node2</title>
<g id="a_edge7_Node000007_Node000002"><a xlink:title=" ">
<path fill="none" stroke="#63b8ff" d="M144.21,-54.99C121.12,-45.27 90.63,-32.44 68.34,-23.06"/>
<polygon fill="#63b8ff" stroke="#63b8ff" points="69.6,-19.79 59.03,-19.14 66.89,-26.24 69.6,-19.79"/>
</a>
</g>
</g>
<!-- Node7&#45;&gt;Node4 -->
<g id="edge10_Node000007_Node000004" class="edge">
<title>Node7&#45;&gt;Node4</title>
<g id="a_edge10_Node000007_Node000004"><a xlink:title=" ">
<path fill="none" stroke="#63b8ff" d="M163.22,-54.84C154.57,-46.26 143.51,-35.3 134.56,-26.42"/>
<polygon fill="#63b8ff" stroke="#63b8ff" points="136.91,-23.82 127.34,-19.27 131.98,-28.79 136.91,-23.82"/>
</a>
</g>
</g>
<!-- Node8 -->
<g id="Node000008" class="node">
<title>Node8</title>
<g id="a_Node000008"><a xlink:title=" ">
<polygon fill="#e0e0e0" stroke="#999999" points="204.5,-19 160.5,-19 160.5,0 204.5,0 204.5,-19"/>
<text text-anchor="middle" x="182.5" y="-7" font-family="Helvetica,sans-Serif" font-size="10.00">string</text>
</a>
</g>
</g>
<!-- Node7&#45;&gt;Node8 -->
<g id="edge8_Node000007_Node000008" class="edge">
<title>Node7&#45;&gt;Node8</title>
<g id="a_edge8_Node000007_Node000008"><a xlink:title=" ">
<path fill="none" stroke="#63b8ff" d="M178.71,-54.84C179.36,-47.21 180.17,-37.7 180.88,-29.45"/>
<polygon fill="#63b8ff" stroke="#63b8ff" points="184.39,-29.53 181.75,-19.27 177.41,-28.93 184.39,-29.53"/>
</a>
</g>
</g>
<!-- Node9 -->
<g id="Node000009" class="node">
<title>Node9</title>
<g id="a_Node000009"><a xlink:title=" ">
<polygon fill="#e0e0e0" stroke="#999999" points="316,-19 223,-19 223,0 316,0 316,-19"/>
<text text-anchor="middle" x="269.5" y="-7" font-family="Helvetica,sans-Serif" font-size="10.00">unordered_map</text>
</a>
</g>
</g>
<!-- Node7&#45;&gt;Node9 -->
<g id="edge9_Node000007_Node000009" class="edge">
<title>Node7&#45;&gt;Node9</title>
<g id="a_edge9_Node000007_Node000009"><a xlink:title=" ">
<path fill="none" stroke="#63b8ff" d="M199.77,-54.84C214.17,-45.68 232.83,-33.82 247.23,-24.66"/>
<polygon fill="#63b8ff" stroke="#63b8ff" points="249.42,-27.41 255.98,-19.09 245.67,-21.51 249.42,-27.41"/>
</a>
</g>
</g>
</g>
</svg>
