<?xml version="1.0" encoding="UTF-8" standalone="no"?>
<!DOCTYPE svg PUBLIC "-//W3C//DTD SVG 1.1//EN"
 "http://www.w3.org/Graphics/SVG/1.1/DTD/svg11.dtd">
<!-- Generated by graphviz version 2.43.0 (0)
 -->
<!-- Title: /home/runner/work/acados_solver_ros2/acados_solver_ros2/acados_solver_base/include/acados_solver_base/acados_types.hpp Pages: 1 -->
<svg width="324pt" height="115pt"
 viewBox="0.00 0.00 324.00 115.00" xmlns="http://www.w3.org/2000/svg" xmlns:xlink="http://www.w3.org/1999/xlink">

<svg id="main" version="1.1" xmlns="http://www.w3.org/2000/svg" xmlns:xlink="http://www.w3.org/1999/xlink" xml:space="preserve" onload="init(evt)">
<style type="text/css"><![CDATA[
.node, .edge {opacity: 0.7;}
.node.selected, .edge.selected {opacity: 1;}
.edge:hover path { stroke: red; }
.edge:hover polygon { stroke: red; fill: red; }
]]></style>
<script type="application/ecmascript" xlink:href="svg.min.js"/>
<svg id="graph" class="graph">
<g id="graph0" class="graph" transform="scale(1 1) rotate(0) translate(4 111)">
<title>/home/runner/work/acados_solver_ros2/acados_solver_ros2/acados_solver_base/include/acados_solver_base/acados_types.hpp</title>
<!-- Node1 -->
<g id="Node000001" class="node">
<title>Node1</title>
<g id="a_Node000001"><a xlink:title=" ">
<polygon fill="#999999" stroke="#666666" points="265,-107 56,-107 56,-55 265,-55 265,-107"/>
<text text-anchor="start" x="64" y="-95" font-family="Helvetica,sans-Serif" font-size="10.00">/home/runner/work/acados</text>
<text text-anchor="start" x="64" y="-84" font-family="Helvetica,sans-Serif" font-size="10.00">_solver_ros2/acados_solver</text>
<text text-anchor="start" x="64" y="-73" font-family="Helvetica,sans-Serif" font-size="10.00">_ros2/acados_solver_base/include</text>
<text text-anchor="middle" x="160.5" y="-62" font-family="Helvetica,sans-Serif" font-size="10.00">/acados_solver_base/acados_types.hpp</text>
</a>
</g>
</g>
<!-- Node2 -->
<g id="Node000002" class="node">
<title>Node2</title>
<g id="a_Node000002"><a xlink:title=" ">
<polygon fill="#e0e0e0" stroke="#999999" points="77,-19 0,-19 0,0 77,0 77,-19"/>
<text text-anchor="middle" x="38.5" y="-7" font-family="Helvetica,sans-Serif" font-size="10.00">Eigen/Dense</text>
</a>
</g>
</g>
<!-- Node1&#45;&gt;Node2 -->
<g id="edge1_Node000001_Node000002" class="edge">
<title>Node1&#45;&gt;Node2</title>
<g id="a_edge1_Node000001_Node000002"><a xlink:title=" ">
<path fill="none" stroke="#63b8ff" d="M116.46,-54.91C98.26,-44.54 77.87,-32.93 62.51,-24.18"/>
<polygon fill="#63b8ff" stroke="#63b8ff" points="64.08,-21.04 53.66,-19.14 60.62,-27.13 64.08,-21.04"/>
</a>
</g>
</g>
<!-- Node3 -->
<g id="Node000003" class="node">
<title>Node3</title>
<g id="a_Node000003"><a xlink:title=" ">
<polygon fill="#e0e0e0" stroke="#999999" points="139.5,-19 95.5,-19 95.5,0 139.5,0 139.5,-19"/>
<text text-anchor="middle" x="117.5" y="-7" font-family="Helvetica,sans-Serif" font-size="10.00">string</text>
</a>
</g>
</g>
<!-- Node1&#45;&gt;Node3 -->
<g id="edge2_Node000001_Node000003" class="edge">
<title>Node1&#45;&gt;Node3</title>
<g id="a_edge2_Node000001_Node000003"><a xlink:title=" ">
<path fill="none" stroke="#63b8ff" d="M144.98,-54.91C139.44,-45.97 133.34,-36.1 128.29,-27.94"/>
<polygon fill="#63b8ff" stroke="#63b8ff" points="131.18,-25.96 122.95,-19.3 125.23,-29.65 131.18,-25.96"/>
</a>
</g>
</g>
<!-- Node4 -->
<g id="Node000004" class="node">
<title>Node4</title>
<g id="a_Node000004"><a xlink:title=" ">
<polygon fill="#e0e0e0" stroke="#999999" points="251,-19 158,-19 158,0 251,0 251,-19"/>
<text text-anchor="middle" x="204.5" y="-7" font-family="Helvetica,sans-Serif" font-size="10.00">unordered_map</text>
</a>
</g>
</g>
<!-- Node1&#45;&gt;Node4 -->
<g id="edge3_Node000001_Node000004" class="edge">
<title>Node1&#45;&gt;Node4</title>
<g id="a_edge3_Node000001_Node000004"><a xlink:title=" ">
<path fill="none" stroke="#63b8ff" d="M176.39,-54.91C182.05,-45.97 188.3,-36.1 193.46,-27.94"/>
<polygon fill="#63b8ff" stroke="#63b8ff" points="196.54,-29.62 198.93,-19.3 190.62,-25.88 196.54,-29.62"/>
</a>
</g>
</g>
<!-- Node5 -->
<g id="Node000005" class="node">
<title>Node5</title>
<g id="a_Node000005"><a xlink:title=" ">
<polygon fill="#e0e0e0" stroke="#999999" points="316,-19 269,-19 269,0 316,0 316,-19"/>
<text text-anchor="middle" x="292.5" y="-7" font-family="Helvetica,sans-Serif" font-size="10.00">vector</text>
</a>
</g>
</g>
<!-- Node1&#45;&gt;Node5 -->
<g id="edge4_Node000001_Node000005" class="edge">
<title>Node1&#45;&gt;Node5</title>
<g id="a_edge4_Node000001_Node000005"><a xlink:title=" ">
<path fill="none" stroke="#63b8ff" d="M208.16,-54.91C228.03,-44.44 250.32,-32.71 266.99,-23.93"/>
<polygon fill="#63b8ff" stroke="#63b8ff" points="268.88,-26.89 276.1,-19.14 265.62,-20.7 268.88,-26.89"/>
</a>
</g>
</g>
</g>
</svg>
</svg>

<style type='text/css'>
<![CDATA[
[data-mouse-over-selected='false'] { opacity: 0.7; }
[data-mouse-over-selected='true']  { opacity: 1.0; }
]]>
</style>
<script type="application/ecmascript"><![CDATA[
document.addEventListener('DOMContentLoaded', (event) => {
  highlightEdges();
  highlightAdjacentNodes();
});
]]></script>
</svg>
