<?xml version="1.0" encoding="UTF-8" standalone="no"?>
<!DOCTYPE svg PUBLIC "-//W3C//DTD SVG 1.1//EN"
 "http://www.w3.org/Graphics/SVG/1.1/DTD/svg11.dtd">
<!-- Generated by graphviz version 2.43.0 (0)
 -->
<!-- Title: /home/runner/work/acados_solver_ros2/acados_solver_ros2/acados_solver_base/include/acados_solver_base/acados_types.hpp Pages: 1 -->
<svg width="285pt" height="247pt"
 viewBox="0.00 0.00 285.00 247.00" xmlns="http://www.w3.org/2000/svg" xmlns:xlink="http://www.w3.org/1999/xlink">
<g id="graph0" class="graph" transform="scale(1 1) rotate(0) translate(4 243)">
<title>/home/runner/work/acados_solver_ros2/acados_solver_ros2/acados_solver_base/include/acados_solver_base/acados_types.hpp</title>
<!-- Node1 -->
<g id="Node000001" class="node">
<title>Node1</title>
<g id="a_Node000001"><a xlink:title=" ">
<polygon fill="#999999" stroke="#666666" points="277,-239 68,-239 68,-187 277,-187 277,-239"/>
<text text-anchor="start" x="76" y="-227" font-family="Helvetica,sans-Serif" font-size="10.00">/home/runner/work/acados</text>
<text text-anchor="start" x="76" y="-216" font-family="Helvetica,sans-Serif" font-size="10.00">_solver_ros2/acados_solver</text>
<text text-anchor="start" x="76" y="-205" font-family="Helvetica,sans-Serif" font-size="10.00">_ros2/acados_solver_base/include</text>
<text text-anchor="middle" x="172.5" y="-194" font-family="Helvetica,sans-Serif" font-size="10.00">/acados_solver_base/acados_types.hpp</text>
</a>
</g>
</g>
<!-- Node2 -->
<g id="Node000002" class="node">
<title>Node2</title>
<g id="a_Node000002"><a xlink:href="acados__solver_8hpp.html" target="_top" xlink:title=" ">
<polygon fill="white" stroke="#666666" points="211,-151 0,-151 0,-99 211,-99 211,-151"/>
<text text-anchor="start" x="8" y="-139" font-family="Helvetica,sans-Serif" font-size="10.00">/home/runner/work/acados</text>
<text text-anchor="start" x="8" y="-128" font-family="Helvetica,sans-Serif" font-size="10.00">_solver_ros2/acados_solver</text>
<text text-anchor="start" x="8" y="-117" font-family="Helvetica,sans-Serif" font-size="10.00">_ros2/acados_solver_base/include</text>
<text text-anchor="middle" x="105.5" y="-106" font-family="Helvetica,sans-Serif" font-size="10.00">/acados_solver_base/acados_solver.hpp</text>
</a>
</g>
</g>
<!-- Node1&#45;&gt;Node2 -->
<g id="edge1_Node000001_Node000002" class="edge">
<title>Node1&#45;&gt;Node2</title>
<g id="a_edge1_Node000001_Node000002"><a xlink:title=" ">
<path fill="none" stroke="#63b8ff" d="M146.42,-178.52C139.32,-169.42 131.77,-159.71 125.1,-151.16"/>
<polygon fill="#63b8ff" stroke="#63b8ff" points="143.85,-180.92 152.76,-186.66 149.38,-176.62 143.85,-180.92"/>
</a>
</g>
</g>
<!-- Node3 -->
<g id="Node000003" class="node">
<title>Node3</title>
<g id="a_Node000003"><a xlink:href="acados__solver__utils_8hpp.html" target="_top" xlink:title=" ">
<polygon fill="white" stroke="#666666" points="268,-63 77,-63 77,0 268,0 268,-63"/>
<text text-anchor="start" x="85" y="-51" font-family="Helvetica,sans-Serif" font-size="10.00">/home/runner/work/acados</text>
<text text-anchor="start" x="85" y="-40" font-family="Helvetica,sans-Serif" font-size="10.00">_solver_ros2/acados_solver</text>
<text text-anchor="start" x="85" y="-29" font-family="Helvetica,sans-Serif" font-size="10.00">_ros2/acados_solver_base/include</text>
<text text-anchor="start" x="85" y="-18" font-family="Helvetica,sans-Serif" font-size="10.00">/acados_solver_base/acados_solver</text>
<text text-anchor="middle" x="172.5" y="-7" font-family="Helvetica,sans-Serif" font-size="10.00">_utils.hpp</text>
</a>
</g>
</g>
<!-- Node1&#45;&gt;Node3 -->
<g id="edge3_Node000001_Node000003" class="edge">
<title>Node1&#45;&gt;Node3</title>
<g id="a_edge3_Node000001_Node000003"><a xlink:title=" ">
<path fill="none" stroke="#63b8ff" d="M205.04,-178.7C211.37,-170.29 217.09,-160.84 220.5,-151 228.06,-129.16 227.61,-120.99 220.5,-99 216.34,-86.13 208.66,-73.65 200.64,-63.05"/>
<polygon fill="#63b8ff" stroke="#63b8ff" points="202.12,-176.75 198.58,-186.73 207.57,-181.14 202.12,-176.75"/>
</a>
</g>
</g>
<!-- Node2&#45;&gt;Node3 -->
<g id="edge2_Node000002_Node000003" class="edge">
<title>Node2&#45;&gt;Node3</title>
<g id="a_edge2_Node000002_Node000003"><a xlink:title=" ">
<path fill="none" stroke="#63b8ff" d="M129.75,-90.89C136.41,-81.79 143.6,-71.96 150.16,-63.02"/>
<polygon fill="#63b8ff" stroke="#63b8ff" points="126.89,-88.86 123.81,-99 132.54,-93 126.89,-88.86"/>
</a>
</g>
</g>
</g>
</svg>
